<?xml version="1.0" encoding="utf-8"?>
<!-- Generator: Adobe Illustrator 27.1.0, SVG Export Plug-In . SVG Version: 6.00 Build 0)  -->
<svg version="1.1" id="Capa_1" xmlns="http://www.w3.org/2000/svg" xmlns:xlink="http://www.w3.org/1999/xlink" x="0px" y="0px"
	 viewBox="0 0 1080 1080" style="enable-background:new 0 0 1080 1080;" xml:space="preserve">
<style type="text/css">
	.st0{fill:transparent;}
</style>
<g>
	<g>
		<path xmlns="http://www.w3.org/2000/svg" d="M7.03,433.49c0-11.21,0-22.43,0-33.64c0.95-5.61,1.78-11.24,2.87-16.81c17.36-88.89,65.64-157.01,131.46-212.01    c34.95-29.21,73.76-52.62,115.12-71.22C317,72.59,379.58,54.22,445.01,46.54c10.95-1.28,21.79-3.65,32.68-5.52    c39.89,0,79.77,0,119.66,0c2.23,0.94,4.41,2.46,6.71,2.71c18.67,2.07,37.89,1.63,55.95,6.27c45.75,11.74,91.77,23.28,136.21,39.4    c59.17,21.46,112.74,55.14,159.74,98.85c44.76,41.63,80.69,90.8,100.31,151.02c9.71,29.82,16.72,60.73,13.74,94.27    c-30.65,1.87-60.74,4.6-90.88,5.35c-63.17,1.55-126.36,2.62-189.54,2.87c-111.64,0.44-223.29,0.45-334.93,0    c-68.06-0.27-136.11-1.46-204.16-2.75C169.34,437.46,88.18,435.36,7.03,433.49z M560.14,158.65c0-12.95-6.83-20.95-21.45-22.07    c-12.39-0.95-21.21,9.28-21.12,22.39c0.09,13.12,8.94,22.3,21.43,22.23C551.45,181.13,560.18,171.82,560.14,158.65z M428.05,349.4    c13.3,0.17,22.84-8.39,23.05-20.69c0.19-10.86-11.53-24.91-21.24-23.95c-12.47,1.24-21.15,7.02-21.35,22.4    C408.35,340.03,416.32,349.25,428.05,349.4z M648.71,349.4c12.07,0.14,20.33-8.62,20.5-21.24c0.19-13.97-6.21-21.21-20.43-23.43    c-9.53-1.48-21.83,11.98-22.17,22.99C626.23,340.05,635.61,349.25,648.71,349.4z M190.49,303.29    c0.04,13.86,8.47,23.78,20.12,23.68c10.38-0.09,22.61-12.55,22.41-22.84c-0.25-13.14-9.27-22.27-21.75-22.03    C199.28,282.34,190.46,291.33,190.49,303.29z M887.21,302.98c-0.05-11.95-8.97-20.78-21.08-20.88    c-12.46-0.1-21.45,9.27-21.45,22.34c0,10.29,12.41,22.61,22.71,22.53C879,326.88,887.28,316.86,887.21,302.98z M326.11,183.02    c0.12,13.06,8.22,22.28,19.86,22.61c11.43,0.32,23-11.69,22.7-23.55c-0.31-11.87-9.45-20.58-21.55-20.52    C332.65,161.62,325.98,168.44,326.11,183.02z M730.01,161.55c-11.86,0.05-21.02,9.28-20.98,21.13    c0.05,11.57,10.7,22.55,22.08,22.76c12.21,0.23,20.54-9.14,20.48-23.03C751.54,168.41,744.38,161.49,730.01,161.55z"/>
		<path xmlns="http://www.w3.org/2000/svg" d="M142.64,1025c-29.77-8.32-56.41-22.83-77.4-46.83c-26.25-29.99-43.69-64.97-47.39-106.12c-2.26-25.18-2.7-50.55-3.9-74.54    c17.32,5.23,32.83,9.88,48.32,14.6c23.39,7.12,45.19,0.13,65.25-11.04c29.3-16.31,57.49-15.37,85.99,0.5    c32.52,18.11,65.05,17.25,97.34-0.02c28.76-15.38,56.74-16.95,86.02-0.51c33.25,18.67,67.67,18.39,101.02-0.25    c27.77-15.52,54.61-15.46,82.17,0.23c30.63,17.43,63.79,20.03,93.91,3.28c34.92-19.42,66.05-17.66,100.06,0.83    c28.68,15.59,59.62,13.43,87.79-2.5c30.38-17.18,58.71-17.35,89.45-0.78c36.7,19.79,73.69,16.43,111.38-7.8    c0,22.98,1.81,44.7-0.41,65.96c-3.68,35.26-13.57,68.69-34.07,97.9c-23.33,33.22-52.13,57.4-91.68,64.99    c-0.58,0.11-0.96,1.38-1.43,2.11C670.92,1025,406.78,1025,142.64,1025z"/>
		<path xmlns="http://www.w3.org/2000/svg" d="M1076,744.66c-12.84-0.01-25.72-0.64-38.52,0.18c-8.33,0.54-12.94-2.67-16.54-10.22c-4.54-9.54-10.01-18.59-16.09-29.69    c-6.32,11.23-11.63,21.63-17.91,31.34c-2.35,3.62-6.95,7.97-10.55,8c-50.48,0.44-100.97,0.19-151.45,0.06    c-0.79,0-1.58-0.62-3.15-1.28c0-90.98,0-182.26,0-274.61c36.57,0,73.01,0,110.28,0c0,19.64,0,39,0,59.72c-19.51,0-38.82,0-59.05,0    c0,15.54,0,29.75,0,46.33c6.37,0,12.78,0,19.2,0c26.13,0,52.27,0.54,78.38-0.27c10.23-0.32,16.6,2.58,20.77,12.63    c3.3,7.96,8.07,15.24,13.05,24.43c2.07-3.37,3.9-5.31,4.58-7.62c7.59-25.67,24.44-33.64,48.51-29.37    c5.96,1.06,12.31-0.35,18.48-0.63c0,1.87,0,3.74,0,5.61c-1.07,0.63-2.59,0.98-3.13,1.95c-13.39,24.09-26.79,48.16-39.79,72.48    c-1.38,2.59-1.54,7.37-0.18,9.89c14.12,26.24,28.67,52.22,43.1,78.28C1076,742.8,1076,743.73,1076,744.66z M872.56,683.49    c20.53,0,39.79,0,60.55,0c0,19.45,0,37.6,0,55.75c16.09-24.78,30-49.9,43.07-75.5c1.69-3.3,0.2-9.74-1.8-13.57    c-9.78-18.73-20.24-37.07-30.46-55.55c-2.85-5.15-5.67-10.31-8.51-15.46c-1,0.47-1.99,0.93-2.99,1.4c0,17.91,0,35.81,0,55.59    c-20.57,0-40.13,0-59.86,0C872.56,652.39,872.56,666.71,872.56,683.49z"/>
		<path xmlns="http://www.w3.org/2000/svg" d="M623.3,467.62c27.94,0,53.65-1.25,79.2,0.34c26.78,1.67,47.27,17.17,63.34,39.14c39.44,53.9,39.75,142.25,0.66,196.46    c-19.01,26.36-43.63,39.55-75.85,41.86c-37.74,2.7-75.33,9.3-112.69,16.07c-55.83,10.1-111.85,21.5-168.47,16.16    c-77.67-7.33-156.08-10.1-232.25-30.1c-40.72-10.69-78.71-28.5-111.44-56.9c-6.78-5.88-10.91-4.86-16.62,1.24    c-12.35,13.2-25.34,25.74-37.13,37.61c0-49.8-0.03-101.13,0.02-152.46c0.02-16.79,0.46-33.58,0.25-50.36    c-0.09-6.92,1.56-10.25,8.87-10.14c69.43,1.04,138.87,1.83,208.3,2.72c0.32,0,0.64,0.57,3.57,3.36    c-19.71,18.38-39.2,36.56-61.79,57.63c29.08,20.68,56.1,41.6,84.66,59.84c60.58,38.68,127.43,59.04,197.47,63.92    c53.74,3.74,107.89,1.16,161.85,0.85c2.68-0.02,6.12-4.7,7.75-8c1.27-2.58,0.29-6.4,0.29-9.67c0-67.71,0-135.42,0-203.13    C623.3,479.02,623.3,473.98,623.3,467.62z M675.19,529.4c0,51.61,0,102.24,0,152.77c32.37,3.35,55.46-10.68,62.08-41.71    c4.08-19.1,5.13-40.12,2.26-59.4C733.92,543.33,711.05,526.36,675.19,529.4z"/>
		<path xmlns="http://www.w3.org/2000/svg" d="M547.17,552.14c0-30.41,0-56.7,0-83.82c13.32,0,25.42,0,38.24,0c0,56.13,0,111.45,0,168.92c-11.42,0-22.84,0.8-34.04-0.46    c-3.64-0.41-7.52-5.69-9.95-9.65c-14.49-23.64-28.58-47.56-45-75.04c0,30.63,0,56.93,0,84.23c-13.24,0-25.34,0-38.28,0    c0-55.88,0-111.16,0-168.69c11.72,0,23.47-0.55,35.1,0.39c2.85,0.23,5.9,4.99,7.92,8.3c12.9,21.15,25.52,42.48,38.27,63.74    C541.22,543.03,543.16,545.88,547.17,552.14z"/>
		<path xmlns="http://www.w3.org/2000/svg" d="M377.6,467.83c14.16,0,26.92,0,40.87,0c0,55.98,0,111.61,0,168.34c-13.13,0-26.55,0-40.87,0    C377.6,580.34,377.6,524.71,377.6,467.83z"/>
	</g>
</g>
</svg>
